<?xml version="1.0" encoding="UTF-8" standalone="no"?>
<svg width="1006px" height="765px" viewBox="0 0 1006 765" version="1.1" xmlns="http://www.w3.org/2000/svg" xmlns:xlink="http://www.w3.org/1999/xlink" xmlns:sketch="http://www.bohemiancoding.com/sketch/ns">
    <!-- Generator: Sketch 3.0.3 (7892) - http://www.bohemiancoding.com/sketch -->
    <title>logo</title>
    <desc>Created with Sketch.</desc>
    <defs></defs>
    <g id="Page-1" stroke="none" stroke-width="1" fill="none" fill-rule="evenodd" sketch:type="MSPage">
        <g id="Artboard" sketch:type="MSArtboardGroup" transform="translate(-101.000000, -142.000000)" fill="#6AD89C">
            <g id="logo" sketch:type="MSLayerGroup" transform="translate(102.000000, 142.000000)">
                <g id="Group" sketch:type="MSShapeGroup">
                    <g transform="translate(446.428571, 0.000000)" id="Shape">
                        <path d="M186.5,114.714286 C175.785714,125.428571 165.071429,130.785714 153.464286,131.678571 C140.071429,155.785714 116.857143,171.857143 82.0357143,171.857143 C32.0357143,171.857143 -0.107142857,137.928571 -0.107142857,93.2857143 C-0.107142857,28.1071429 40.0714286,0.428571429 74.8928571,0.428571429 C94.5357143,0.428571429 109.714286,5.78571429 119.535714,20.0714286 C149.892857,21.8571429 166.857143,41.5 166.857143,76.3214286 C166.857143,87.0357143 165.964286,98.6428571 163.285714,108.464286 C167.75,106.678571 171.321429,104 174,101.321429 L186.5,114.714286 Z M34.7142857,91.5 C34.7142857,129.892857 56.1428571,145.071429 83.8214286,145.071429 C99,145.071429 110.607143,139.714286 118.642857,130.785714 C82.0357143,125.428571 63.2857143,104 63.2857143,70.9642857 C63.2857143,49.5357143 71.3214286,34.3571429 84.7142857,26.3214286 C82.0357143,25.4285714 78.4642857,25.4285714 74.8928571,25.4285714 C56.1428571,25.4285714 34.7142857,42.3928571 34.7142857,91.5 L34.7142857,91.5 Z M117.75,85.25 C110.607143,85.25 106.142857,79.8928571 106.142857,72.75 C106.142857,61.1428571 105.25,52.2142857 102.571429,45.0714286 C94.5357143,49.5357143 90.0714286,59.3571429 90.0714286,70.9642857 C90.0714286,95.9642857 106.142857,108.464286 132.035714,110.25 C135.607143,99.5357143 137.392857,87.0357143 137.392857,74.5357143 C137.392857,58.4642857 133.821429,49.5357143 127.571429,45.0714286 C128.464286,53.1071429 129.357143,62.0357143 129.357143,71.8571429 C129.357143,79.8928571 124.892857,85.25 117.75,85.25 L117.75,85.25 Z"></path>
                        <path d="M242.75,140.607143 C242.75,128.107143 244.535714,114.714286 244.535714,93.2857143 C244.535714,86.1428571 240.964286,79 230.25,79 C216.857143,79 201.678571,86.1428571 201.678571,107.571429 C201.678571,124.535714 202.571429,143.285714 202.571429,152.214286 C202.571429,160.25 196.321429,167.392857 187.392857,167.392857 C179.357143,167.392857 172.214286,161.142857 172.214286,152.214286 C172.214286,142.392857 173.107143,124.535714 173.107143,113.821429 L173.107143,67.3928571 C173.107143,59.3571429 179.357143,53.1071429 187.392857,53.1071429 C195.428571,53.1071429 201.678571,59.3571429 201.678571,67.3928571 C212.392857,56.6785714 225.785714,51.3214286 238.285714,51.3214286 C270.428571,51.3214286 274.892857,76.3214286 274.892857,85.25 C274.892857,102.214286 273.107143,111.142857 273.107143,137.035714 C273.107143,141.5 276.678571,144.178571 280.25,144.178571 C286.5,144.178571 291.857143,140.607143 298.107143,132.571429 C300.785714,129 305.25,127.214286 308.821429,129.892857 C313.285714,132.571429 315.071429,136.142857 313.285714,141.5 C307.035714,157.571429 291.857143,169.178571 273.107143,169.178571 C256.142857,170.964286 242.75,156.678571 242.75,140.607143 L242.75,140.607143 Z"></path>
                    </g>
                    <g transform="translate(0.000000, 85.357143)" id="Shape">
                        <path d="M514.178571,592.75 C527.571429,584.714286 551.678571,544.535714 558.821429,558.821429 C565.964286,573.107143 576.678571,623.107143 524,652.571429 C505.25,665.964286 484.714286,674 455.25,674 C357.035714,674 307.928571,619.535714 295.428571,492.75 L209.714286,495.428571 C189.178571,565.071429 134.714286,645.428571 65.9642857,669.535714 C61.5,670.428571 55.25,674 44.5357143,674 C21.3214286,674 -0.107142857,652.571429 -0.107142857,626.678571 C-0.107142857,609.714286 10.6071429,590.964286 25.7857143,584.714286 C93.6428571,559.714286 117.75,544.535714 137.392857,496.321429 L79.3571429,496.321429 C60.6071429,496.321429 43.6428571,483.821429 40.0714286,465.964286 C34.7142857,440.964286 53.4642857,419.535714 77.5714286,419.535714 C106.142857,419.535714 132.035714,420.428571 157.928571,420.428571 C215.964286,212.392857 283.821429,181.142857 323.107143,162.392857 C328.464286,159.714286 337.392857,158.821429 343.642857,158.821429 C364.178571,158.821429 382.035714,175.785714 382.035714,197.214286 C382.035714,293.642857 383.821429,368.642857 389.178571,425.785714 L436.5,425.785714 C452.571429,425.785714 466.857143,436.5 469.535714,452.571429 C472.214286,473.107143 457.928571,490.071429 437.392857,490.071429 L397.214286,490.071429 C411.5,574 435.607143,606.142857 476.678571,606.142857 C484.714286,607.035714 506.142857,597.214286 514.178571,592.75 L514.178571,592.75 Z M298.107143,259.714286 C269.535714,289.178571 250.785714,335.607143 228.464286,422.214286 L291.857143,424 C290.964286,377.571429 292.75,322.214286 298.107143,259.714286 L298.107143,259.714286 Z M340.071429,132.928571 C292.75,141.857143 251.678571,100.785714 260.607143,53.4642857 C265.964286,26.6785714 287.392857,5.25 313.285714,0.785714286 C360.607143,-8.14285714 401.678571,32.9285714 392.75,80.25 C388.285714,106.142857 366.857143,127.571429 340.071429,132.928571 L340.071429,132.928571 Z M321.321429,89.1785714 C338.285714,93.6428571 353.464286,78.4642857 349.892857,60.6071429 C348.107143,52.5714286 340.964286,45.4285714 332.928571,43.6428571 C315.964286,39.1785714 300.785714,54.3571429 304.357143,72.2142857 C306.142857,80.25 313.285714,87.3928571 321.321429,89.1785714 L321.321429,89.1785714 Z"></path>
                        <path d="M732.035714,506.142857 C735.607143,581.142857 690.071429,676.678571 591.857143,673.107143 C543.642857,671.321429 504.357143,632.928571 504.357143,583.821429 C504.357143,560.607143 507.928571,538.285714 507.928571,506.142857 C507.928571,470.428571 504.357143,425.785714 504.357143,399 C504.357143,395.428571 502.571429,390.964286 498.107143,390.964286 C493.642857,390.964286 490.964286,391.857143 485.607143,398.107143 C477.571429,408.821429 465.071429,412.392857 452.571429,405.25 C442.75,399.892857 437.392857,388.285714 442.75,374 C458.821429,338.285714 486.5,319.535714 521.321429,319.535714 C584.714286,319.535714 600.785714,361.5 600.785714,408.821429 C600.785714,453.464286 590.964286,499.892857 590.964286,576.678571 C590.964286,587.392857 599.892857,598.107143 610.607143,599 C648.107143,600.785714 698.107143,557.928571 694.535714,507.928571 L732.035714,506.142857 Z M544.535714,173.107143 C580.25,168.642857 610.607143,199 606.142857,234.714286 C603.464286,258.821429 582.928571,278.464286 558.821429,282.035714 C523.107143,286.5 492.75,256.142857 497.214286,220.428571 C499.892857,195.428571 519.535714,175.785714 544.535714,173.107143 L544.535714,173.107143 Z"></path>
                        <path d="M636.5,594.535714 C707.928571,560.607143 687.392857,513.285714 698.107143,460.607143 C666.857143,438.285714 655.25,406.142857 655.25,360.607143 C655.25,329.357143 667.75,297.214286 711.5,297.214286 C758.821429,297.214286 770.428571,331.142857 770.428571,392.75 C770.428571,403.464286 769.535714,413.285714 769.535714,424 C823.107143,423.107143 871.321429,405.25 899.892857,371.321429 C905.25,365.071429 914.178571,360.607143 924,360.607143 C937.392857,360.607143 956.142857,370.428571 956.142857,392.75 C956.142857,460.607143 906.142857,527.571429 906.142857,575.785714 C906.142857,597.214286 918.642857,611.5 938.285714,611.5 C946.321429,611.5 955.25,608.821429 962.392857,604.357143 C975.785714,596.321429 994.535714,600.785714 1001.67857,615.071429 C1008.82143,629.357143 1004.35714,646.321429 989.178571,656.142857 C972.214286,667.75 941.857143,679.357143 905.25,679.357143 C834.714286,679.357143 804.357143,632.035714 804.357143,582.035714 C804.357143,546.321429 821.321429,498.107143 848.107143,466.857143 C824.892857,478.464286 794.535714,482.035714 777.571429,482.035714 L760.607143,482.035714 C745.428571,545.428571 718.642857,617.75 665.964286,652.571429"></path>
                    </g>
                    <g transform="translate(600.214286, 190.500000)" id="Shape">
                        <path d="M203.25,143.857143 C203.25,131.357143 205.035714,117.964286 205.035714,96.5357143 C205.035714,89.3928571 201.464286,82.25 190.75,82.25 C177.357143,82.25 162.178571,89.3928571 162.178571,110.821429 L162.178571,155.464286 C162.178571,163.5 155.928571,170.642857 147,170.642857 C138.964286,170.642857 131.821429,164.392857 131.821429,155.464286 C131.821429,145.642857 133.607143,127.785714 133.607143,117.071429 C133.607143,54.5714286 140.75,10.8214286 112.178571,1.89285714 C102.357143,-0.785714286 132.714286,0.107142857 141.642857,1.89285714 C147.892857,2.78571429 163.964286,6.35714286 163.964286,15.2857143 C163.964286,33.1428571 163.071429,53.6785714 163.071429,69.75 C172.892857,59.0357143 187.178571,54.5714286 198.785714,54.5714286 C230.928571,54.5714286 235.392857,79.5714286 235.392857,88.5 C235.392857,105.464286 233.607143,114.392857 233.607143,140.285714 C233.607143,144.75 237.178571,147.428571 240.75,147.428571 C247,147.428571 252.357143,143.857143 258.607143,135.821429 C261.285714,132.25 265.75,130.464286 269.321429,133.142857 C273.785714,135.821429 275.571429,139.392857 273.785714,144.75 C267.535714,160.821429 252.357143,172.428571 233.607143,172.428571 C216.642857,174.214286 203.25,160.821429 203.25,143.857143 L203.25,143.857143 Z"></path>
                        <path d="M362.178571,134.035714 C363.964286,131.357143 366.642857,130.464286 369.321429,130.464286 C374.678571,130.464286 378.25,134.928571 378.25,139.392857 C378.25,154.571429 351.464286,172.428571 318.428571,172.428571 C281.821429,172.428571 255.928571,147.428571 255.928571,117.071429 C255.928571,77.7857143 280.035714,54.5714286 313.964286,54.5714286 C341.642857,54.5714286 358.607143,69.75 358.607143,92.9642857 C358.607143,109.928571 344.321429,130.464286 306.821429,130.464286 C299.678571,130.464286 292.535714,130.464286 287.178571,129.571429 C291.642857,142.071429 302.357143,149.214286 317.535714,149.214286 C340.75,149.214286 355.928571,142.964286 362.178571,134.035714 L362.178571,134.035714 Z M286.285714,110.821429 C289.857143,111.714286 296.107143,111.714286 303.25,111.714286 C319.321429,111.714286 326.464286,102.785714 326.464286,92.9642857 C326.464286,85.8214286 321.107143,80.4642857 313.964286,80.4642857 C299.678571,79.5714286 288.071429,89.3928571 286.285714,110.821429 L286.285714,110.821429 Z"></path>
                        <path d="M103.25,24.2142857 C109.5,26.8928571 114.857143,27.7857143 118.428571,27.7857143 C123.785714,27.7857143 125.571429,25.1071429 125.571429,22.4285714 C125.571429,19.75 123.785714,17.0714286 118.428571,17.0714286 C112.178571,17.9642857 107.714286,20.6428571 103.25,24.2142857 L103.25,24.2142857 Z M56.8214286,77.7857143 C56.8214286,62.6071429 60.3928571,47.4285714 67.5357143,34.0357143 C56.8214286,30.4642857 47,26.8928571 38.9642857,26.8928571 C29.1428571,26.8928571 22.8928571,30.4642857 22.8928571,40.2857143 C22.8928571,48.3214286 26.4642857,50.1071429 26.4642857,54.5714286 C26.4642857,59.0357143 22.8928571,64.3928571 16.6428571,64.3928571 C5.92857143,64.3928571 -0.321428571,51 -0.321428571,37.6071429 C-0.321428571,15.2857143 11.2857143,0.107142857 35.3928571,0.107142857 C49.6785714,0.107142857 66.6428571,7.25 82.7142857,15.2857143 C92.5357143,6.35714286 105.035714,0.107142857 120.214286,0.107142857 C137.178571,0.107142857 149.678571,5.46428571 149.678571,22.4285714 C149.678571,38.5 135.392857,48.3214286 120.214286,48.3214286 C112.178571,48.3214286 103.25,46.5357143 93.4285714,42.9642857 C90.75,51.8928571 89.8571429,64.3928571 89.8571429,76.8928571 C89.8571429,99.2142857 99.6785714,116.178571 99.6785714,137.607143 C99.6785714,156.357143 88.0714286,170.642857 64.8571429,170.642857 C55.0357143,170.642857 47.8928571,167.964286 41.6428571,163.5 C36.2857143,159.928571 35.3928571,154.571429 37.1785714,150.107143 C39.8571429,145.642857 46.1071429,143.857143 50.5714286,146.535714 C53.25,148.321429 54.1428571,148.321429 56.8214286,148.321429 C61.2857143,148.321429 63.9642857,146.535714 63.9642857,140.285714 C64.8571429,118.857143 56.8214286,108.142857 56.8214286,77.7857143 L56.8214286,77.7857143 Z"></path>
                    </g>
                </g>
            </g>
        </g>
    </g>
</svg>