<?xml version="1.0" encoding="utf-8"?>
<!-- Generator: Adobe Illustrator 17.1.0, SVG Export Plug-In . SVG Version: 6.00 Build 0)  -->
<!DOCTYPE svg PUBLIC "-//W3C//DTD SVG 1.1//EN" "http://www.w3.org/Graphics/SVG/1.1/DTD/svg11.dtd">
<svg version="1.1" id="sprinkles__x26__winks" xmlns="http://www.w3.org/2000/svg" xmlns:xlink="http://www.w3.org/1999/xlink"
	 x="0px" y="0px" viewBox="0 0 1635 1027" style="enable-background:new 0 0 1635 1027;" xml:space="preserve">
<pattern  x="-1160" y="-328" width="3461" height="2771" patternUnits="userSpaceOnUse" id="Sprinkles__x26__Winks" viewBox="0 -2771 3461 2771" style="overflow:visible;">
	<g>
		<polygon style="fill:none;" points="0,-2771 3461,-2771 3461,0 0,0 		"/>
		<g>
			<path style="fill:none;stroke:#FFEA74;stroke-width:30;stroke-miterlimit:10;" d="M1815.8-1479.3c0,34.9-28.3,63.3-63.3,63.3
				c-34.9,0-63.3-28.3-63.3-63.3c0-34.9,28.3-63.3,63.3-63.3C1787.5-1542.6,1815.8-1514.2,1815.8-1479.3z"/>
			<path style="fill:none;stroke:#FFEA74;stroke-width:30;stroke-miterlimit:10;" d="M670.2-89.7c0,34.9-28.3,63.3-63.3,63.3
				s-63.3-28.3-63.3-63.3s28.3-63.3,63.3-63.3S670.2-124.6,670.2-89.7z"/>
			<path style="fill:none;stroke:#FFEA74;stroke-width:30;stroke-miterlimit:10;" d="M783.2-1537.4c0,34.9-28.3,63.3-63.3,63.3
				s-63.3-28.3-63.3-63.3c0-34.9,28.3-63.3,63.3-63.3S783.2-1572.3,783.2-1537.4z"/>
			<path style="fill:none;stroke:#FFEA74;stroke-width:30;stroke-miterlimit:10;" d="M3128.1-1238.3c0,34.9-28.3,63.3-63.3,63.3
				s-63.3-28.3-63.3-63.3c0-34.9,28.3-63.3,63.3-63.3S3128.1-1273.3,3128.1-1238.3z"/>
			<path style="fill:none;stroke:#FFEA74;stroke-width:30;stroke-miterlimit:10;" d="M3025-2508.9c0,34.9-28.3,63.3-63.3,63.3
				s-63.3-28.3-63.3-63.3s28.3-63.3,63.3-63.3S3025-2543.8,3025-2508.9z"/>
			<path style="fill:none;stroke:#FFEA74;stroke-width:30;stroke-miterlimit:10;" d="M2575.9-211.2c0,34.9-28.3,63.3-63.3,63.3
				s-63.3-28.3-63.3-63.3s28.3-63.3,63.3-63.3S2575.9-246.1,2575.9-211.2z"/>
			<path style="fill:none;stroke:#FFEA74;stroke-width:30;stroke-miterlimit:10;" d="M2419.5-1747.8c-13-32.4,2.8-69.3,35.2-82.3
				c32.4-13,69.3,2.8,82.3,35.2"/>
			<path style="fill:none;stroke:#FFEA74;stroke-width:30;stroke-miterlimit:10;" d="M179.4-1997.8c34.3-6.6,67.5,15.9,74.1,50.2
				c6.6,34.3-15.9,67.5-50.2,74.1"/>
			<path style="fill:none;stroke:#FFEA74;stroke-width:30;stroke-miterlimit:10;" d="M1151.9-1982.9c32.7,12.3,49.2,48.8,36.9,81.5
				c-12.3,32.7-48.8,49.2-81.5,36.9"/>
			<path style="fill:none;stroke:#FFEA74;stroke-width:30;stroke-miterlimit:10;" d="M1400.5-2694.2c-17.2,30.4-55.7,41.2-86.2,24
				c-30.4-17.2-41.2-55.7-24-86.2"/>
			<path style="fill:none;stroke:#FFEA74;stroke-width:30;stroke-miterlimit:10;" d="M55.4-2727.9c32.7,12.3,49.2,48.8,36.9,81.5
				s-48.8,49.2-81.5,36.9"/>
			<path style="fill:none;stroke:#FFEA74;stroke-width:30;stroke-miterlimit:10;" d="M1906.9-682.3c-22.4,26.8-62.3,30.4-89.1,8
				c-26.8-22.4-30.4-62.3-8-89.1"/>
			<path style="fill:none;stroke:#FFEA74;stroke-width:30;stroke-miterlimit:10;" d="M2771.7-593.8c-31.7-14.7-45.4-52.4-30.6-84.1
				c14.7-31.7,52.4-45.4,84.1-30.6"/>
			<path style="fill:none;stroke:#FFEA74;stroke-width:30;stroke-miterlimit:10;" d="M2341.3-2429.1c-31.6,14.9-69.3,1.4-84.2-30.2
				c-14.9-31.6-1.4-69.3,30.2-84.2"/>
			<path style="fill:none;stroke:#FFEA74;stroke-width:30;stroke-miterlimit:10;" d="M519-861.8c1.7,34.9-25.2,64.6-60.1,66.2
				c-34.9,1.7-64.6-25.2-66.2-60.1"/>
			<path style="fill:none;stroke:#FFEA74;stroke-width:30;stroke-miterlimit:10;" d="M1060.5-518.4c18-29.9,56.9-39.6,86.8-21.6
				c29.9,18,39.6,56.9,21.6,86.8"/>
			
				<line style="fill:none;stroke:#FFEA74;stroke-width:30;stroke-linecap:square;stroke-miterlimit:10;" x1="2283.7" y1="-1085.7" x2="2406.7" y2="-1115.4"/>
			
				<line style="fill:none;stroke:#FFEA74;stroke-width:30;stroke-linecap:square;stroke-miterlimit:10;" x1="3054.5" y1="-1969.7" x2="3129.9" y2="-1868.1"/>
			
				<line style="fill:none;stroke:#FFEA74;stroke-width:30;stroke-linecap:square;stroke-miterlimit:10;" x1="801.3" y1="-2444.1" x2="730.3" y2="-2339.4"/>
			
				<line style="fill:none;stroke:#FFEA74;stroke-width:30;stroke-linecap:square;stroke-miterlimit:10;" x1="3430.9" y1="-456.1" x2="3359.9" y2="-351.4"/>
			
				<line style="fill:none;stroke:#FFEA74;stroke-width:30;stroke-linecap:square;stroke-miterlimit:10;" x1="1888.7" y1="-2097.3" x2="1765.5" y2="-2126"/>
			
				<line style="fill:none;stroke:#FFEA74;stroke-width:30;stroke-linecap:square;stroke-miterlimit:10;" x1="1679.2" y1="-151.5" x2="1772.1" y2="-65.6"/>
			
				<line style="fill:none;stroke:#FFEA74;stroke-width:30;stroke-linecap:square;stroke-miterlimit:10;" x1="44.6" y1="-1277" x2="157.6" y2="-1333.8"/>
			
				<line style="fill:none;stroke:#FFEA74;stroke-width:30;stroke-linecap:square;stroke-miterlimit:10;" x1="1156.9" y1="-1177.9" x2="1157.8" y2="-1051.4"/>
		</g>
	</g>
</pattern>
<pattern  x="-1160" y="-328" width="3461" height="2771" patternUnits="userSpaceOnUse" id="sprankles" viewBox="0 -2771 3461 2771" style="overflow:visible;">
	<g>
		<polygon style="fill:none;" points="0,-2771 3461,-2771 3461,0 0,0 		"/>
		<g>
			<path style="fill:none;stroke:#000000;stroke-width:40.1624;stroke-miterlimit:10;" d="M1815.8-1479.3
				c0,34.9-28.3,63.3-63.3,63.3c-34.9,0-63.3-28.3-63.3-63.3c0-34.9,28.3-63.3,63.3-63.3C1787.5-1542.6,1815.8-1514.2,1815.8-1479.3
				z"/>
			<path style="fill:none;stroke:#000000;stroke-width:40.1624;stroke-miterlimit:10;" d="M670.2-89.7c0,34.9-28.3,63.3-63.3,63.3
				s-63.3-28.3-63.3-63.3s28.3-63.3,63.3-63.3S670.2-124.6,670.2-89.7z"/>
			<path style="fill:none;stroke:#000000;stroke-width:40.1624;stroke-miterlimit:10;" d="M783.2-1537.4c0,34.9-28.3,63.3-63.3,63.3
				s-63.3-28.3-63.3-63.3c0-34.9,28.3-63.3,63.3-63.3S783.2-1572.3,783.2-1537.4z"/>
			<path style="fill:none;stroke:#000000;stroke-width:40.1624;stroke-miterlimit:10;" d="M3128.1-1238.3
				c0,34.9-28.3,63.3-63.3,63.3s-63.3-28.3-63.3-63.3c0-34.9,28.3-63.3,63.3-63.3S3128.1-1273.3,3128.1-1238.3z"/>
			<path style="fill:none;stroke:#000000;stroke-width:40.1624;stroke-miterlimit:10;" d="M3025-2508.9c0,34.9-28.3,63.3-63.3,63.3
				s-63.3-28.3-63.3-63.3s28.3-63.3,63.3-63.3S3025-2543.8,3025-2508.9z"/>
			<path style="fill:none;stroke:#000000;stroke-width:40.1624;stroke-miterlimit:10;" d="M2575.9-211.2c0,34.9-28.3,63.3-63.3,63.3
				s-63.3-28.3-63.3-63.3s28.3-63.3,63.3-63.3S2575.9-246.1,2575.9-211.2z"/>
			<path style="fill:none;stroke:#000000;stroke-width:40.1624;stroke-miterlimit:10;" d="M2419.5-1747.8
				c-13-32.4,2.8-69.3,35.2-82.3c32.4-13,69.3,2.8,82.3,35.2"/>
			<path style="fill:none;stroke:#000000;stroke-width:40.1624;stroke-miterlimit:10;" d="M179.4-1997.8
				c34.3-6.6,67.5,15.9,74.1,50.2c6.6,34.3-15.9,67.5-50.2,74.1"/>
			<path style="fill:none;stroke:#000000;stroke-width:40.1624;stroke-miterlimit:10;" d="M1151.9-1982.9
				c32.7,12.3,49.2,48.8,36.9,81.5c-12.3,32.7-48.8,49.2-81.5,36.9"/>
			<path style="fill:none;stroke:#000000;stroke-width:40.1624;stroke-miterlimit:10;" d="M1400.5-2694.2
				c-17.2,30.4-55.7,41.2-86.2,24c-30.4-17.2-41.2-55.7-24-86.2"/>
			<path style="fill:none;stroke:#000000;stroke-width:40.1624;stroke-miterlimit:10;" d="M55.4-2727.9
				c32.7,12.3,49.2,48.8,36.9,81.5s-48.8,49.2-81.5,36.9"/>
			<path style="fill:none;stroke:#000000;stroke-width:40.1624;stroke-miterlimit:10;" d="M1906.9-682.3
				c-22.4,26.8-62.3,30.4-89.1,8c-26.8-22.4-30.4-62.3-8-89.1"/>
			<path style="fill:none;stroke:#000000;stroke-width:40.1624;stroke-miterlimit:10;" d="M2771.7-593.8
				c-31.7-14.7-45.4-52.4-30.6-84.1c14.7-31.7,52.4-45.4,84.1-30.6"/>
			<path style="fill:none;stroke:#000000;stroke-width:40.1624;stroke-miterlimit:10;" d="M2341.3-2429.1
				c-31.6,14.9-69.3,1.4-84.2-30.2c-14.9-31.6-1.4-69.3,30.2-84.2"/>
			<path style="fill:none;stroke:#000000;stroke-width:40.1624;stroke-miterlimit:10;" d="M519-861.8c1.7,34.9-25.2,64.6-60.1,66.2
				c-34.9,1.7-64.6-25.2-66.2-60.1"/>
			<path style="fill:none;stroke:#000000;stroke-width:40.1624;stroke-miterlimit:10;" d="M1060.5-518.4
				c18-29.9,56.9-39.6,86.8-21.6c29.9,18,39.6,56.9,21.6,86.8"/>
			
				<line style="fill:none;stroke:#000000;stroke-width:40.1624;stroke-linecap:square;stroke-miterlimit:10;" x1="2283.7" y1="-1085.7" x2="2406.7" y2="-1115.4"/>
			
				<line style="fill:none;stroke:#000000;stroke-width:40.1624;stroke-linecap:square;stroke-miterlimit:10;" x1="3054.5" y1="-1969.7" x2="3129.9" y2="-1868.1"/>
			
				<line style="fill:none;stroke:#000000;stroke-width:40.1624;stroke-linecap:square;stroke-miterlimit:10;" x1="801.3" y1="-2444.1" x2="730.3" y2="-2339.4"/>
			
				<line style="fill:none;stroke:#000000;stroke-width:40.1624;stroke-linecap:square;stroke-miterlimit:10;" x1="3430.9" y1="-456.1" x2="3359.9" y2="-351.4"/>
			
				<line style="fill:none;stroke:#000000;stroke-width:40.1624;stroke-linecap:square;stroke-miterlimit:10;" x1="1888.7" y1="-2097.3" x2="1765.5" y2="-2126"/>
			
				<line style="fill:none;stroke:#000000;stroke-width:40.1624;stroke-linecap:square;stroke-miterlimit:10;" x1="1679.2" y1="-151.5" x2="1772.1" y2="-65.6"/>
			
				<line style="fill:none;stroke:#000000;stroke-width:40.1624;stroke-linecap:square;stroke-miterlimit:10;" x1="44.6" y1="-1277" x2="157.6" y2="-1333.8"/>
			
				<line style="fill:none;stroke:#000000;stroke-width:40.1624;stroke-linecap:square;stroke-miterlimit:10;" x1="1156.9" y1="-1177.9" x2="1157.8" y2="-1051.4"/>
		</g>
	</g>
</pattern>
<pattern  id="sprank_1_" xlink:href="#sprankles" patternTransform="matrix(0.1 0 0 0.1 -4444.3501 -7167.4502)">
</pattern>
<rect id="sprank" x="363" y="178" style="display:none;fill:url(#sprank_1_);" width="772" height="658"/>
<pattern  id="pattern_1_" xlink:href="#Sprinkles__x26__Winks" patternTransform="matrix(0.1 0 0 0.1 -4444.3501 -7167.4502)">
</pattern>
<rect id="pattern" style="fill:url(#pattern_1_);" width="1635" height="1027"/>
</svg>
