<svg xmlns="http://www.w3.org/2000/svg" xmlns:xlink="http://www.w3.org/1999/xlink" version="1.1" id="Layer_1" x="0px" y="0px" width="100px" height="100px" viewBox="0 0 100 100" enable-background="new 0 0 100 100" xml:space="preserve">
<g>
	<path d="M56.038,16.477v-1.714h3.346c0.293,0,0.57-0.115,0.773-0.32c2.454-2.455,2.454-6.447,0-8.901   c-0.203-0.206-0.48-0.32-0.771-0.32H41.983c-0.29,0-0.568,0.115-0.772,0.32c-1.189,1.188-1.845,2.769-1.845,4.451   s0.656,3.262,1.845,4.451c0.205,0.205,0.482,0.32,0.772,0.32h3.346v1.714c-7.184,0.982-13.753,3.909-19.163,8.235l-1.805-1.805   l1.994-1.994c0.206-0.206,0.32-0.482,0.32-0.772c0-2.98-2.424-5.403-5.404-5.403c-0.291,0-0.568,0.114-0.772,0.32l-10.2,10.2   c-0.205,0.204-0.32,0.481-0.32,0.772c0,2.98,2.424,5.403,5.403,5.403c0.291,0,0.568-0.115,0.772-0.32l1.993-1.993l1.805,1.805   c-5.379,6.729-8.607,15.251-8.607,24.518c0,21.692,17.646,39.338,39.337,39.338c21.694,0,39.339-17.646,39.339-39.338   C90.023,35.567,75.203,19.098,56.038,16.477z M41.553,9.992c0-0.953,0.322-1.857,0.915-2.585h16.436   c0.593,0.729,0.915,1.633,0.915,2.585s-0.322,1.856-0.915,2.585H42.466C41.874,11.848,41.553,10.944,41.553,9.992z M46.423,14.762   h8.522v1.575c-1.398-0.151-2.822-0.235-4.26-0.235c-1.44,0-2.861,0.083-4.262,0.235L46.423,14.762L46.423,14.762z M14.958,29.219   c-1.435-0.189-2.575-1.331-2.766-2.765l9.503-9.504c1.436,0.191,2.577,1.332,2.767,2.766L14.958,29.219z M18.922,28.346   l4.667-4.667l1.729,1.729c-1.683,1.424-3.245,2.984-4.667,4.667L18.922,28.346z M50.686,92.594   c-20.487,0-37.154-16.666-37.154-37.152c0-20.487,16.667-37.153,37.154-37.153c20.486,0,37.152,16.666,37.152,37.153   C87.838,75.928,71.172,92.594,50.686,92.594z M50.686,21.84c-18.529,0-33.603,15.073-33.603,33.602s15.073,33.602,33.603,33.602   c18.526,0,33.601-15.073,33.601-33.602S69.212,21.84,50.686,21.84z M50.686,87.403c-17.625,0-31.963-14.338-31.963-31.962   c0-17.44,14.041-31.652,31.411-31.948l0.004,5.624h1.092l-0.005-5.624C68.6,23.784,82.647,37.998,82.647,55.441   C82.647,73.065,68.31,87.403,50.686,87.403z M43.508,26.682l0.856,3.196l-1.057,0.283l-0.857-3.196L43.508,26.682z M36.269,29.527   l1.655,2.863l-0.945,0.546l-1.656-2.863L36.269,29.527z M31.583,37.254l-2.343-2.336l0.773-0.774l2.343,2.335L31.583,37.254z    M27.494,42.823l-2.869-1.653l0.546-0.948l2.869,1.652L27.494,42.823z M22.065,47.353l3.198,0.852l-0.282,1.057l-3.198-0.853   L22.065,47.353z M20.909,55.037h3.309v1.093h-3.309V55.037z M21.782,62.766l3.198-0.859l0.284,1.054l-3.197,0.86L21.782,62.766z    M25.17,70.948l-0.546-0.944l2.865-1.657l0.546,0.945L25.17,70.948z M30.017,77.026l-0.772-0.772l2.34-2.34l0.772,0.771   L30.017,77.026z M36.271,81.647l-0.947-0.547l1.654-2.87l0.948,0.547L36.271,81.647z M43.514,84.489l-1.057-0.282l0.853-3.2   l1.057,0.284L43.514,84.489z M50.14,82.053h1.093v3.31H50.14V82.053z M57.869,84.483l-0.864-3.196l1.056-0.286l0.862,3.196   L57.869,84.483z M65.101,81.639l-1.659-2.864l0.945-0.546l1.66,2.864L65.101,81.639z M71.361,77.023l-2.343-2.338l0.771-0.772   l2.343,2.336L71.361,77.023z M76.204,70.938l-2.868-1.652l0.546-0.948l2.868,1.653L76.204,70.938z M79.308,63.814l-3.199-0.854   l0.281-1.057l3.199,0.854L79.308,63.814z M77.154,55.033h3.308v1.093h-3.308V55.033z M79.585,48.397l-3.195,0.861l-0.286-1.053   l3.197-0.862L79.585,48.397z M76.197,40.215l0.547,0.946l-2.864,1.656l-0.546-0.946L76.197,40.215z M71.353,34.137l0.773,0.773   l-2.342,2.34l-0.772-0.772L71.353,34.137z M65.096,29.516l0.947,0.546l-1.654,2.869l-0.947-0.546L65.096,29.516z M57.856,26.677   l1.056,0.282l-0.854,3.2l-1.057-0.282L57.856,26.677z M50.686,52.437c-0.731,0-1.392,0.271-1.914,0.705   c0.071-0.059,0.136-0.122,0.211-0.175l-9.475-9.475c2.931-2.743,6.854-4.437,11.177-4.437v-5.464   c-5.991,0-11.424,2.427-15.375,6.345c-0.026,0.019-0.056,0.028-0.079,0.052c-0.213,0.212-0.213,0.558,0,0.771L48.21,53.739   c0.062-0.09,0.138-0.165,0.208-0.25c-0.454,0.525-0.739,1.204-0.739,1.951c0,1.658,1.347,3.005,3.006,3.005   c1.656,0,3.005-1.347,3.005-3.005S52.342,52.437,50.686,52.437z M50.686,56.807c-0.754,0-1.367-0.613-1.367-1.365   c0-0.753,0.613-1.366,1.367-1.366c0.751,0,1.365,0.613,1.365,1.366C52.051,56.193,51.437,56.807,50.686,56.807z M61.476,59.082   h0.273v1.823h-0.273V59.082z M60.071,61.127l-0.474-1.76l0.265-0.07l0.474,1.76L60.071,61.127z M58.766,61.705l-0.914-1.576   l0.237-0.137l0.912,1.576L58.766,61.705z M56.559,61.118l1.29,1.288l-0.193,0.194l-1.289-1.289L56.559,61.118z M55.374,62.607   l1.578,0.912l-0.136,0.236l-1.579-0.911L55.374,62.607z M54.605,64.346l1.761,0.473l-0.07,0.265l-1.76-0.471L54.605,64.346z    M54.328,66.229h1.82v0.273h-1.82V66.229z M54.539,68.121l1.759-0.474l0.07,0.265l-1.758,0.474L54.539,68.121z M55.237,69.895   l1.577-0.912l0.137,0.235l-1.577,0.911L55.237,69.895z M56.362,71.419l1.287-1.29l0.195,0.194l-1.288,1.289L56.362,71.419z    M58.089,72.744l-0.237-0.137l0.909-1.578l0.237,0.137L58.089,72.744z M59.859,73.435l-0.266-0.07l0.469-1.759l0.265,0.07   L59.859,73.435z M61.474,71.83h0.273v1.82h-0.273V71.83z M62.898,71.679l0.264-0.069l0.471,1.758l-0.267,0.07L62.898,71.679z    M65.371,72.607l-0.237,0.137l-0.909-1.576l0.237-0.137L65.371,72.607z M66.664,71.613l-1.291-1.285l0.191-0.192l1.292,1.284   L66.664,71.613z M67.854,70.125l-1.577-0.907l0.137-0.237l1.577,0.907L67.854,70.125z M68.61,68.382l-1.759-0.467l0.07-0.265   l1.759,0.468L68.61,68.382z M67.076,66.229h1.82v0.273h-1.82V66.229z M68.686,64.614l-1.757,0.476l-0.072-0.265l1.759-0.476   L68.686,64.614z M67.989,62.839l-1.573,0.915l-0.139-0.236l1.575-0.916L67.989,62.839z M66.86,61.313l-1.287,1.292l-0.191-0.192   l1.284-1.292L66.86,61.313z M65.135,59.988l0.238,0.137l-0.91,1.578l-0.237-0.137L65.135,59.988z M63.362,59.297l0.266,0.071   l-0.468,1.759l-0.266-0.07L63.362,59.297z"/>
</g>
</svg>