<?xml version="1.0" encoding="UTF-8" standalone="no"?>
<svg width="24px" height="22px" viewBox="0 0 24 22" version="1.1" xmlns="http://www.w3.org/2000/svg" xmlns:xlink="http://www.w3.org/1999/xlink" xmlns:sketch="http://www.bohemiancoding.com/sketch/ns">
    <!-- Generator: Sketch 3.0.3 (7892) - http://www.bohemiancoding.com/sketch -->
    <title>Slice 1</title>
    <desc>Created with Sketch.</desc>
    <defs></defs>
    <g id="Page-1" stroke="none" stroke-width="1" fill="none" fill-rule="evenodd" sketch:type="MSPage">
        <g id="tri" sketch:type="MSLayerGroup" transform="translate(0.000000, 1.000000)">
            <g id="miu" sketch:type="MSShapeGroup">
                <g id="editor_shape_design_triangle_circle_outline_stroke">
                    <g id="path-1-link" fill="#292929">
                        <path d="M12.7146894,6.02392123 C12.9463445,5.88822481 13.1859305,5.76460272 13.4325836,5.65391876 L13.4295772,5.64967577 C14.3862597,5.18585327 15.456692,4.92628597 16.5866055,4.92628597 C19.4252151,4.92628597 21.8884183,6.5645007 23.1157587,8.96392666 L23.1157587,8.96392666 C23.6800173,10.0174106 24,11.2213373 24,12.5 C24,16.6421356 20.6421356,20 16.5,20 C13.3363936,20 10.6302782,18.0412481 9.52825996,15.2703507 L0.0795836567,15.2703507 C0.00765838569,15.2703507 -0.0213767672,15.2196317 0.0170005675,15.1531355 L8.9325973,-0.294850387 C8.9699589,-0.359586518 9.02951827,-0.3613465 9.0678956,-0.294850387 L12.7146894,6.02392123 L12.7146894,6.02392123 Z M13.2146426,6.89018635 C14.1786531,6.32439933 15.3014428,6 16.5,6 C20.0898509,6 23,8.91014913 23,12.5 C23,16.0898509 20.0898509,19 16.5,19 C13.9010184,19 11.6583008,17.4746524 10.6182409,15.2703507 L17.9209092,15.2703507 C17.9925979,15.2703507 18.0208539,15.2178717 17.9834923,15.1531355 L13.2146426,6.89018635 L13.2146426,6.89018635 Z M16.1379105,14.1260171 L1.79998779,14.1260171 L8.96894917,1.7265548 L16.1379105,14.1260171 L16.1379105,14.1260171 Z" id="path-1"></path>
                    </g>
                    <path d="M12.7146894,6.02392123 C12.9463445,5.88822481 13.1859305,5.76460272 13.4325836,5.65391876 L13.4295772,5.64967577 C14.3862597,5.18585327 15.456692,4.92628597 16.5866055,4.92628597 C19.4252151,4.92628597 21.8884183,6.5645007 23.1157587,8.96392666 L23.1157587,8.96392666 C23.6800173,10.0174106 24,11.2213373 24,12.5 C24,16.6421356 20.6421356,20 16.5,20 C13.3363936,20 10.6302782,18.0412481 9.52825996,15.2703507 L0.0795836567,15.2703507 C0.00765838569,15.2703507 -0.0213767672,15.2196317 0.0170005675,15.1531355 L8.9325973,-0.294850387 C8.9699589,-0.359586518 9.02951827,-0.3613465 9.0678956,-0.294850387 L12.7146894,6.02392123 L12.7146894,6.02392123 Z M13.2146426,6.89018635 C14.1786531,6.32439933 15.3014428,6 16.5,6 C20.0898509,6 23,8.91014913 23,12.5 C23,16.0898509 20.0898509,19 16.5,19 C13.9010184,19 11.6583008,17.4746524 10.6182409,15.2703507 L17.9209092,15.2703507 C17.9925979,15.2703507 18.0208539,15.2178717 17.9834923,15.1531355 L13.2146426,6.89018635 L13.2146426,6.89018635 Z M16.1379105,14.1260171 L1.79998779,14.1260171 L8.96894917,1.7265548 L16.1379105,14.1260171 L16.1379105,14.1260171 Z" id="path-1"></path>
                </g>
            </g>
        </g>
    </g>
</svg>