<svg xmlns="http://www.w3.org/2000/svg" xmlns:xlink="http://www.w3.org/1999/xlink" xmlns:sketch="http://www.bohemiancoding.com/sketch/ns" width="24px" height="22px" viewBox="0 0 24 22" version="1.1">
    <!-- Generator: Sketch 3.0.1 (7597) - http://www.bohemiancoding.com/sketch -->
    <title>editor_shape_design_triangle_circle_outline_stroke</title>
    <description>Created with Sketch.</description>
    <defs>
        <path d="M12.7146894,7.02392123 C12.9463445,6.88822481 13.1859305,6.76460272 13.4325836,6.65391876 L13.4295772,6.64967577 C14.3862597,6.18585327 15.456692,5.92628597 16.5866055,5.92628597 C19.4252151,5.92628597 21.8884183,7.5645007 23.1157587,9.96392666 L23.1157587,9.96392666 C23.6800173,11.0174106 24,12.2213373 24,13.5 C24,17.6421356 20.6421356,21 16.5,21 C13.3363936,21 10.6302782,19.0412481 9.52825996,16.2703507 L0.0795836567,16.2703507 C0.00765838569,16.2703507 -0.0213767672,16.2196317 0.0170005675,16.1531355 L8.9325973,0.705149613 C8.9699589,0.640413482 9.02951827,0.6386535 9.0678956,0.705149613 L12.7146894,7.02392123 L12.7146894,7.02392123 Z M13.2146426,7.89018635 C14.1786531,7.32439933 15.3014428,7 16.5,7 C20.0898509,7 23,9.91014913 23,13.5 C23,17.0898509 20.0898509,20 16.5,20 C13.9010184,20 11.6583008,18.4746524 10.6182409,16.2703507 L17.9209092,16.2703507 C17.9925979,16.2703507 18.0208539,16.2178717 17.9834923,16.1531355 L13.2146426,7.89018635 L13.2146426,7.89018635 Z M16.1379105,15.1260171 L1.79998779,15.1260171 L8.96894917,2.7265548 L16.1379105,15.1260171 Z" id="path-1"/>
    </defs>
    <g id="miu" stroke="none" stroke-width="1" fill="none" fill-rule="evenodd" sketch:type="MSPage">
        <g id="editor_shape_design_triangle_circle_outline_stroke">
            <use fill="#000000" fill-rule="evenodd" sketch:type="MSShapeGroup" xlink:href="#path-1"/>
            <use fill="none" xlink:href="#path-1"/>
        </g>
    </g>
</svg>